<svg width="14" height="14" viewBox="0 0 14 14" fill="none" xmlns="http://www.w3.org/2000/svg">
<path d="M1.19467 10.8301C1.15676 11.0007 1.15763 11.1775 1.19722 11.3477C1.23681 11.5178 1.3141 11.6769 1.4234 11.8132C1.53269 11.9495 1.6712 12.0595 1.82869 12.1351C1.98618 12.2107 2.15864 12.2499 2.33334 12.25H11.6667C11.8414 12.2499 12.0138 12.2107 12.1713 12.1351C12.3288 12.0595 12.4673 11.9495 12.5766 11.8132C12.6859 11.6769 12.7632 11.5178 12.8028 11.3477C12.8424 11.1775 12.8432 11.0007 12.8053 10.8301L11.6387 5.58013C11.5811 5.32105 11.4369 5.08936 11.2299 4.92328C11.0229 4.7572 10.7654 4.66667 10.5 4.66663H3.5C3.23461 4.66667 2.97716 4.7572 2.77014 4.92328C2.56313 5.08936 2.41893 5.32105 2.36134 5.58013L1.19467 10.8301Z" stroke="#272727" stroke-linecap="round" stroke-linejoin="round"/>
<path d="M4.66663 6.41663V3.49996C4.66663 2.88112 4.91246 2.28763 5.35004 1.85004C5.78763 1.41246 6.38112 1.16663 6.99996 1.16663C7.6188 1.16663 8.21229 1.41246 8.64988 1.85004C9.08746 2.28763 9.33329 2.88112 9.33329 3.49996V6.41663" stroke="#272727" stroke-linecap="round" stroke-linejoin="round"/>
</svg>
