<svg width="14" height="14" viewBox="0 0 14 14" fill="none" xmlns="http://www.w3.org/2000/svg">
<path d="M1.16663 5.54161C1.16664 4.89248 1.36356 4.25862 1.73137 3.72375C2.09919 3.18888 2.62059 2.77816 3.22673 2.54584C3.83287 2.31352 4.49522 2.27053 5.1263 2.42255C5.75738 2.57457 6.32751 2.91444 6.76138 3.39728C6.79193 3.42995 6.82888 3.456 6.86992 3.47381C6.91096 3.49162 6.95522 3.50081 6.99996 3.50081C7.0447 3.50081 7.08896 3.49162 7.13 3.47381C7.17104 3.456 7.20798 3.42995 7.23854 3.39728C7.67105 2.9113 8.2413 2.56857 8.87341 2.41471C9.50552 2.26085 10.1695 2.30314 10.777 2.53597C11.3844 2.7688 11.9066 3.18112 12.2739 3.71805C12.6413 4.25498 12.8364 4.89105 12.8333 5.54161C12.8333 6.87744 11.9583 7.87494 11.0833 8.74994L7.87963 11.8492C7.77093 11.974 7.63692 12.0743 7.48649 12.1434C7.33605 12.2124 7.17265 12.2487 7.00713 12.2497C6.84161 12.2508 6.67775 12.2166 6.52646 12.1494C6.37517 12.0823 6.23989 11.9837 6.12963 11.8603L2.91663 8.74994C2.04163 7.87494 1.16663 6.88328 1.16663 5.54161Z" stroke="#272727" stroke-linecap="round" stroke-linejoin="round"/>
</svg>
